<?xml version="1.0" encoding="utf-8"?>
<svg version="1.1" id="Layer_1" xmlns="http://www.w3.org/2000/svg" xmlns:xlink="http://www.w3.org/1999/xlink" x="0px" y="0px"
	 viewBox="0 0 5000 4233.984" enable-background="new 0 0 5000 4233.984" xml:space="preserve">
<symbol  id="Leaf" viewBox="-36.316 -75.007 72.633 150.015">
	<path fill="#989933" stroke="#989933" stroke-width="0.0184" d="M2.417,75.002c5.503-7.896,10.501-16.151,15-24.658
		C25.452,35.023,31.813,18.669,34.754,1.57c1.591-9.489,2.115-19.219,0.831-28.778c-1.133-8.533-3.77-16.955-8.36-24.279
		c-4.161-6.721-10.027-12.379-16.915-16.264c-8.656-4.921-18.667-7.066-28.561-7.247c0.409,4.61,1.415,9.15,2.594,13.619
		c2.234,8.205,5.469,16.089,8.809,23.894c3.209,7.509,6.533,14.994,8.94,22.809c1.423,4.64,2.496,9.398,2.967,14.234
		c0.712,7.209-0.026,14.565-2.23,21.467c0.544-4.356,0.903-8.757,0.7-13.151C3.375,2.842,2.579-2.167,1.212-7.011
		C-1.145-15.423-5.305-23.17-9.646-30.696c-4.441-7.783-9.017-15.556-12.129-23.993c-1.518-4.04-2.723-8.201-3.566-12.436
		c-0.435-1.867-0.579-3.798-1.018-5.657c-1.105,3.413-2.346,6.787-3.362,10.23c-2.883,9.356-5.155,18.933-6.142,28.688
		c-0.552,5.761-0.637,11.587,0.01,17.346c0.762,6.709,2.602,13.303,5.538,19.387c2.943,6.201,6.945,11.819,11.15,17.217
		c3.558,4.594,7.265,9.081,10.535,13.889c3.433,4.997,6.346,10.39,8.251,16.159C2.304,58.107,2.988,66.642,2.417,75.002
		 M3.312,61.443C2.669,55.331,1.343,49.28-0.746,43.498l-0.038-0.01c-1.054-2.905-2.302-5.737-3.669-8.509
		c-1.322-2.568-2.703-5.108-4.187-7.588c-1.28-2.135-2.609-4.243-3.933-6.35c-1.663-2.55-3.304-5.112-4.917-7.691
		c-1.042-1.647-2.094-3.302-3.04-5.001c-1.078-1.742-2.048-3.552-2.994-5.37c-0.861-1.663-1.709-3.342-2.413-5.078l-0.036,0.02
		c-1.371-3.149-2.558-6.382-3.479-9.692c-1.248-4.251-1.953-8.648-2.338-13.055c-0.284-3-0.357-6.04-0.183-9.049
		c-0.145-0.532-0.018-1.099,0.056-1.637c-0.103-1.544,0.179-3.082,0.274-4.622c0.335-3.252,0.796-6.497,1.441-9.704
		c0.095-1.308,0.476-2.576,0.728-3.86c0.542-2.719,1.351-5.372,2.004-8.063c0.036,0.601-0.111,1.191-0.187,1.782
		c-0.548,3.544-0.867,7.122-0.929,10.708c-0.018,0.629,0.048,1.268-0.097,1.887c0.141,2.742,0.167,5.513,0.498,8.249
		c-0.002,0.294,0.133,0.619-0.01,0.891c0.379,2.272,0.639,4.566,1.052,6.834c0.343,1.929,0.784,3.838,1.207,5.749
		c0.8,3.423,1.81,6.793,2.883,10.138c0.181,0.623,0.492,1.216,0.581,1.859c1.201,3.383,2.492,6.743,3.78,10.093
		c0.788,1.762,1.498,3.562,2.26,5.338c0.663,1.51,1.33,3.02,1.992,4.53c0.764,1.74,1.586,3.459,2.348,5.201
		c1.044,2.282,2.113,4.554,3.139,6.844c1.203,2.659,2.441,5.302,3.586,7.985c1.01,2.344,2.03,4.683,2.937,7.066
		c1.185,2.998,2.282,6.033,3.211,9.12C2.597,48.633,3.83,55.039,3.312,61.443 M25.767,6.439c0.048-0.851,0.23-1.689,0.399-2.524
		c0.26-0.953,0.177-1.965,0.492-2.909c0.204-0.546-0.087-1.224,0.31-1.691c0.673-4.443,0.867-8.946,0.776-13.434
		c-0.173-2.445-0.355-4.901-0.867-7.305c-0.044-0.254-0.129-0.522-0.042-0.78c-0.474-1.591-0.75-3.237-1.258-4.82
		c-0.518-1.945-1.278-3.808-1.953-5.699c-1.564-3.862-3.496-7.564-5.586-11.166c-1.357-2.266-2.82-4.471-4.268-6.677
		c-3.165-4.513-6.539-8.882-10.081-13.107c-0.883-1.129-1.919-2.153-2.75-3.314c8.577,3.81,16.613,9.305,22.36,16.814l0.054-0.008
		c1.681,2.236,3.223,4.588,4.475,7.094c1.788,3.461,3.157,7.166,3.961,10.98l0.058-0.071c0.708,3.312,1.228,6.674,1.335,10.061
		c0.177,0.794,0.103,1.613,0.137,2.419c0.014,2.941-0.036,5.9-0.46,8.813c0.014,0.079,0.042,0.236,0.056,0.314
		c-0.385,3.876-1.081,7.717-1.945,11.515c-0.085,1.115-0.492,2.169-0.734,3.252c-0.181,0.802-0.454,1.582-0.839,2.308
		c-0.036-0.462-0.065-0.929-0.149-1.387c-0.054,0.312-0.103,0.621-0.137,0.933C28.017,6.362,26.72,5.725,25.767,6.439z"/>
	
		<linearGradient id="SVGID_1_" gradientUnits="userSpaceOnUse" x1="-236.7556" y1="-16287.3975" x2="-201.7205" y2="-16287.3975" gradientTransform="matrix(1.0132 0 0 -1.0132 207.813 -16502.4766)">
		<stop  offset="0" style="stop-color:#A5A64A"/>
		<stop  offset="0.1555" style="stop-color:#A8A950"/>
		<stop  offset="0.3576" style="stop-color:#B1B160"/>
		<stop  offset="0.5855" style="stop-color:#BFBE7B"/>
		<stop  offset="0.8304" style="stop-color:#D3D1A0"/>
		<stop  offset="1" style="stop-color:#E3E0BE"/>
	</linearGradient>
	
		<linearGradient id="SVGID_2_" gradientUnits="userSpaceOnUse" x1="-236.7648" y1="-16287.3965" x2="-201.7113" y2="-16287.3965" gradientTransform="matrix(1.0132 0 0 -1.0132 207.813 -16502.4766)">
		<stop  offset="0" style="stop-color:#A5A64A"/>
		<stop  offset="1" style="stop-color:#E3E0BE"/>
	</linearGradient>
	<path fill="url(#SVGID_1_)" stroke="url(#SVGID_2_)" stroke-width="0.0184" d="M3.312,61.443
		C2.669,55.331,1.343,49.28-0.746,43.498l-0.038-0.01c-1.054-2.905-2.302-5.737-3.669-8.509c-1.322-2.568-2.703-5.108-4.187-7.588
		c-1.28-2.135-2.609-4.243-3.933-6.35c-1.663-2.55-3.304-5.112-4.917-7.691c-1.042-1.647-2.094-3.302-3.04-5.001
		c-1.078-1.742-2.048-3.552-2.994-5.37c-0.861-1.663-1.709-3.342-2.413-5.078l-0.036,0.02c-1.371-3.149-2.558-6.382-3.479-9.692
		c-1.248-4.251-1.953-8.648-2.338-13.055c-0.284-3-0.357-6.041-0.183-9.049c-0.145-0.532-0.018-1.099,0.056-1.637
		c-0.103-1.544,0.179-3.082,0.274-4.622c0.335-3.252,0.796-6.497,1.441-9.704c0.095-1.308,0.476-2.576,0.728-3.86
		c0.542-2.719,1.351-5.372,2.004-8.063c0.036,0.601-0.111,1.191-0.187,1.782c-0.548,3.544-0.867,7.122-0.929,10.708
		c-0.018,0.629,0.048,1.268-0.097,1.887c0.141,2.742,0.167,5.513,0.498,8.249c-0.002,0.294,0.133,0.619-0.01,0.891
		c0.379,2.272,0.639,4.566,1.052,6.834c0.343,1.929,0.784,3.838,1.207,5.749c0.8,3.423,1.81,6.793,2.883,10.138
		c0.181,0.623,0.492,1.216,0.581,1.859c1.201,3.383,2.492,6.743,3.78,10.093c0.788,1.762,1.498,3.562,2.26,5.338
		c0.663,1.51,1.33,3.02,1.992,4.53c0.764,1.74,1.586,3.459,2.348,5.201c1.044,2.282,2.113,4.554,3.139,6.844
		c1.203,2.659,2.441,5.302,3.586,7.985c1.01,2.344,2.03,4.683,2.937,7.066c1.185,2.998,2.282,6.033,3.211,9.12
		C2.597,48.634,3.83,55.039,3.312,61.443z"/>
	
		<linearGradient id="SVGID_3_" gradientUnits="userSpaceOnUse" x1="500.605" y1="-16760.25" x2="470.6943" y2="-16682.291" gradientTransform="matrix(1.0387 0.0606 0.059 -1.0115 503.0549 -16973.1641)">
		<stop  offset="0" style="stop-color:#989933"/>
		<stop  offset="0.1913" style="stop-color:#939431"/>
		<stop  offset="0.4111" style="stop-color:#86862C"/>
		<stop  offset="0.5408" style="stop-color:#81812A"/>
		<stop  offset="0.6988" style="stop-color:#737226"/>
		<stop  offset="0.8706" style="stop-color:#5B591E"/>
		<stop  offset="1" style="stop-color:#444216"/>
	</linearGradient>
	<path fill="url(#SVGID_3_)" d="M33.019-6.5c0.011,0.086,0.034,0.256,0.045,0.34c-0.691,4.134-1.743,8.21-2.987,12.228
		c-0.169,1.191-0.709,2.295-1.059,3.441c-0.261,0.848-0.629,1.667-1.123,2.42c-0.013-0.499-0.018-1.001-0.087-1.499
		c-0.082,0.331-0.159,0.66-0.218,0.992c-1.291,0.262-2.764-0.51-3.918,0.192c0.109-0.91,0.374-1.797,0.623-2.682
		c0.363-1.005,0.329-2.097,0.756-3.089c0.272-0.572-0.025-1.32,0.467-1.794c1.062-4.723,1.571-9.543,1.745-14.367
		c-0.048-2.636-0.107-5.285-0.553-7.899c-0.035-0.276-0.118-0.569,0-0.84c-0.453-1.74-0.671-3.525-1.164-5.259
		c-0.482-2.123-1.251-4.174-1.919-6.25c-1.58-4.251-3.601-8.357-5.81-12.365c-1.44-2.525-3.006-4.99-4.556-7.457
		c-3.406-5.059-7.063-9.978-10.926-14.753c-0.958-1.272-2.101-2.441-2.997-3.744c9.755,4.672,18.776,11.116,25.003,19.566
		l0.063-0.005c1.819,2.515,3.468,5.143,4.77,7.919c1.867,3.836,3.23,7.906,3.928,12.054l0.072-0.073
		c0.618,3.603,1.014,7.246,0.926,10.889c0.156,0.864,0.019,1.739,0.008,2.606C33.94-12.771,33.697-9.598,33.019-6.5z"/>
</symbol>
<g>
	
		<use xlink:href="#Leaf"  width="72.633" height="150.015" x="-36.316" y="-75.007" transform="matrix(1.0354 1.254 1.254 -1.0354 1393.0194 347.5526)" overflow="visible"/>
	
		<use xlink:href="#Leaf"  width="72.633" height="150.015" x="-36.316" y="-75.007" transform="matrix(0.5121 1.5435 1.5435 -0.5121 1774.4919 547.7839)" overflow="visible"/>
	
		<use xlink:href="#Leaf"  width="72.633" height="150.015" x="-36.316" y="-75.007" transform="matrix(0.0923 -1.6236 -1.6236 -0.0923 986.4487 1047.8353)" overflow="visible"/>
	
		<use xlink:href="#Leaf"  width="72.633" height="150.015" x="-36.316" y="-75.007" transform="matrix(-1.0536 1.2387 1.2387 1.0536 1406.3734 2840.855)" overflow="visible"/>
	
		<use xlink:href="#Leaf"  width="72.633" height="150.015" x="-36.316" y="-75.007" transform="matrix(-1.2606 1.0272 1.0272 1.2606 2617.2256 2572.762)" overflow="visible"/>
	
		<use xlink:href="#Leaf"  width="72.633" height="150.015" x="-36.316" y="-75.007" transform="matrix(-1.2096 1.0869 1.0869 1.2096 1620.382 2906.8096)" overflow="visible"/>
	
		<use xlink:href="#Leaf"  width="72.633" height="150.015" x="-36.316" y="-75.007" transform="matrix(-1.4485 0.7391 0.7391 1.4485 4031.2048 887.2637)" overflow="visible"/>
	
		<use xlink:href="#Leaf"  width="72.633" height="150.015" x="-36.316" y="-75.007" transform="matrix(-0.2568 -1.6058 -1.6058 0.2568 1810.4656 1853.8888)" overflow="visible"/>
	
		<use xlink:href="#Leaf"  width="72.633" height="150.015" x="-36.316" y="-75.007" transform="matrix(-1.4791 0.6757 0.6757 1.4791 512.331 959.3126)" overflow="visible"/>
	
		<use xlink:href="#Leaf"  width="72.633" height="150.015" x="-36.316" y="-75.007" transform="matrix(1.4458 -0.7444 -0.7444 -1.4458 1716.7163 144.8073)" overflow="visible"/>
	
		<use xlink:href="#Leaf"  width="72.633" height="150.015" x="-36.316" y="-75.007" transform="matrix(0.7155 -1.4603 -1.4603 -0.7155 1574.4125 1722.8229)" overflow="visible"/>
	
		<use xlink:href="#Leaf"  width="72.633" height="150.015" x="-36.316" y="-75.007" transform="matrix(-1.6023 -0.2779 -0.2779 1.6023 1474.6808 2361.4402)" overflow="visible"/>
	
		<use xlink:href="#Leaf"  width="72.633" height="150.015" x="-36.316" y="-75.007" transform="matrix(-1.1542 -1.1456 -1.1456 1.1542 4558.3149 3142.4268)" overflow="visible"/>
	
		<use xlink:href="#Leaf"  width="72.633" height="150.015" x="-36.316" y="-75.007" transform="matrix(-1.57 0.4236 0.4236 1.57 2707.2522 1722.1804)" overflow="visible"/>
	
		<use xlink:href="#Leaf"  width="72.633" height="150.015" x="-36.316" y="-75.007" transform="matrix(1.4223 0.7883 0.7883 -1.4223 3708.5183 2046.1346)" overflow="visible"/>
	
		<use xlink:href="#Leaf"  width="72.633" height="150.015" x="-36.316" y="-75.007" transform="matrix(-1.619 -0.1523 -0.1523 1.619 1775.4812 3120.1726)" overflow="visible"/>
	
		<use xlink:href="#Leaf"  width="72.633" height="150.015" x="-36.316" y="-75.007" transform="matrix(-0.9778 -1.2994 -1.2994 0.9778 3706.46 3596.5671)" overflow="visible"/>
	
		<use xlink:href="#Leaf"  width="72.633" height="150.015" x="-36.316" y="-75.007" transform="matrix(-0.3694 1.5837 1.5837 0.3694 1442.3195 1367.8729)" overflow="visible"/>
	
		<use xlink:href="#Leaf"  width="72.633" height="150.015" x="-36.316" y="-75.007" transform="matrix(-0.9181 -1.3423 -1.3423 0.9181 3551.8596 1776.6265)" overflow="visible"/>
	
		<use xlink:href="#Leaf"  width="72.633" height="150.015" x="-36.316" y="-75.007" transform="matrix(-0.7063 -1.4648 -1.4648 0.7063 1566.071 757.4094)" overflow="visible"/>
	
		<use xlink:href="#Leaf"  width="72.633" height="150.015" x="-36.316" y="-75.007" transform="matrix(-1.453 0.7302 0.7302 1.453 3348.8525 3606.397)" overflow="visible"/>
	
		<use xlink:href="#Leaf"  width="72.633" height="150.015" x="-36.316" y="-75.007" transform="matrix(0.4382 -1.566 -1.566 -0.4382 2242.4832 2183.9189)" overflow="visible"/>
	
		<use xlink:href="#Leaf"  width="72.633" height="150.015" x="-36.316" y="-75.007" transform="matrix(0.4004 1.5761 1.5761 -0.4004 2917.1863 1533.3815)" overflow="visible"/>
	
		<use xlink:href="#Leaf"  width="72.633" height="150.015" x="-36.316" y="-75.007" transform="matrix(-0.9857 1.2934 1.2934 0.9857 1362.6287 3018.1702)" overflow="visible"/>
	
		<use xlink:href="#Leaf"  width="72.633" height="150.015" x="-36.316" y="-75.007" transform="matrix(-0.2565 -1.6058 -1.6058 0.2565 162.0574 1439.079)" overflow="visible"/>
	
		<use xlink:href="#Leaf"  width="72.633" height="150.015" x="-36.316" y="-75.007" transform="matrix(1.2978 -0.9798 -0.9798 -1.2978 615.0674 1850.5814)" overflow="visible"/>
	
		<use xlink:href="#Leaf"  width="72.633" height="150.015" x="-36.316" y="-75.007" transform="matrix(1.4971 0.635 0.635 -1.4971 2659.7009 3392.4521)" overflow="visible"/>
	
		<use xlink:href="#Leaf"  width="72.633" height="150.015" x="-36.316" y="-75.007" transform="matrix(-1.5588 0.4633 0.4633 1.5588 4789.3398 2197.0332)" overflow="visible"/>
	
		<use xlink:href="#Leaf"  width="72.633" height="150.015" x="-36.316" y="-75.007" transform="matrix(1.5652 0.441 0.441 -1.5652 220.0781 957.3271)" overflow="visible"/>
	
		<use xlink:href="#Leaf"  width="72.633" height="150.015" x="-36.316" y="-75.007" transform="matrix(-1.4688 -0.698 -0.698 1.4688 4764.5801 3025.7683)" overflow="visible"/>
	
		<use xlink:href="#Leaf"  width="72.633" height="150.015" x="-36.316" y="-75.007" transform="matrix(1.2566 -1.0322 -1.0322 -1.2566 2926.0129 1153.0199)" overflow="visible"/>
	
		<use xlink:href="#Leaf"  width="72.633" height="150.015" x="-36.316" y="-75.007" transform="matrix(-1.2546 1.0346 1.0346 1.2546 4667.0454 2663.7847)" overflow="visible"/>
	
		<use xlink:href="#Leaf"  width="72.633" height="150.015" x="-36.316" y="-75.007" transform="matrix(-1.6011 -0.2847 -0.2847 1.6011 1033.024 2706.5745)" overflow="visible"/>
	
		<use xlink:href="#Leaf"  width="72.633" height="150.015" x="-36.316" y="-75.007" transform="matrix(1.1965 -1.1013 -1.1013 -1.1965 4866.1226 2792.4746)" overflow="visible"/>
	
		<use xlink:href="#Leaf"  width="72.633" height="150.015" x="-36.316" y="-75.007" transform="matrix(-1.2092 -1.0874 -1.0874 1.2092 1750.8187 1577.7552)" overflow="visible"/>
	
		<use xlink:href="#Leaf"  width="72.633" height="150.015" x="-36.316" y="-75.007" transform="matrix(0.3582 1.5862 1.5862 -0.3582 3838.2153 975.826)" overflow="visible"/>
	
		<use xlink:href="#Leaf"  width="72.633" height="150.015" x="-36.316" y="-75.007" transform="matrix(1.5477 -0.499 -0.499 -1.5477 4419.9058 1819.5555)" overflow="visible"/>
	
		<use xlink:href="#Leaf"  width="72.633" height="150.015" x="-36.316" y="-75.007" transform="matrix(-1.0997 1.198 1.198 1.0997 2170.8862 1119.9836)" overflow="visible"/>
	
		<use xlink:href="#Leaf"  width="72.633" height="150.015" x="-36.316" y="-75.007" transform="matrix(-1.1025 -1.1954 -1.1954 1.1025 2365.0562 2530.2319)" overflow="visible"/>
	
		<use xlink:href="#Leaf"  width="72.633" height="150.015" x="-36.316" y="-75.007" transform="matrix(-1.5292 0.5531 0.5531 1.5292 2567.0776 1101.2604)" overflow="visible"/>
	
		<use xlink:href="#Leaf"  width="72.633" height="150.015" x="-36.316" y="-75.007" transform="matrix(-0.2069 1.613 1.613 0.2069 1986.1245 85.7293)" overflow="visible"/>
	
		<use xlink:href="#Leaf"  width="72.633" height="150.015" x="-36.316" y="-75.007" transform="matrix(1.5294 -0.5527 -0.5527 -1.5294 48.4545 1577.1757)" overflow="visible"/>
	
		<use xlink:href="#Leaf"  width="72.633" height="150.015" x="-36.316" y="-75.007" transform="matrix(1.5904 -0.3394 -0.3394 -1.5904 3901.5601 3679.5012)" overflow="visible"/>
	
		<use xlink:href="#Leaf"  width="72.633" height="150.015" x="-36.316" y="-75.007" transform="matrix(1.535 -0.5368 -0.5368 -1.535 3124.4653 3040.4832)" overflow="visible"/>
	
		<use xlink:href="#Leaf"  width="72.633" height="150.015" x="-36.316" y="-75.007" transform="matrix(1.6239 -0.0866 -0.0866 -1.6239 3400.0435 732.2041)" overflow="visible"/>
	
		<use xlink:href="#Leaf"  width="72.633" height="150.015" x="-36.316" y="-75.007" transform="matrix(1.6054 0.2593 0.2593 -1.6054 244.4217 1903.0823)" overflow="visible"/>
	
		<use xlink:href="#Leaf"  width="72.633" height="150.015" x="-36.316" y="-75.007" transform="matrix(-0.0078 -1.6262 -1.6262 0.0078 2496.7944 312.5834)" overflow="visible"/>
	
		<use xlink:href="#Leaf"  width="72.633" height="150.015" x="-36.316" y="-75.007" transform="matrix(-1.6082 -0.2413 -0.2413 1.6082 1506.8627 580.396)" overflow="visible"/>
	
		<use xlink:href="#Leaf"  width="72.633" height="150.015" x="-36.316" y="-75.007" transform="matrix(-1.3502 0.9064 0.9064 1.3502 1962.5851 3120.366)" overflow="visible"/>
	
		<use xlink:href="#Leaf"  width="72.633" height="150.015" x="-36.316" y="-75.007" transform="matrix(0.5959 -1.5131 -1.5131 -0.5959 4197.1172 1760.4414)" overflow="visible"/>
	
		<use xlink:href="#Leaf"  width="72.633" height="150.015" x="-36.316" y="-75.007" transform="matrix(-1.5914 0.3347 0.3347 1.5914 2381.7605 1169.9972)" overflow="visible"/>
	
		<use xlink:href="#Leaf"  width="72.633" height="150.015" x="-36.316" y="-75.007" transform="matrix(1.4013 -0.8252 -0.8252 -1.4013 4555.4844 1662.3164)" overflow="visible"/>
	
		<use xlink:href="#Leaf"  width="72.633" height="150.015" x="-36.316" y="-75.007" transform="matrix(-1.0273 1.2606 1.2606 1.0273 1150.3643 2126.6187)" overflow="visible"/>
	
		<use xlink:href="#Leaf"  width="72.633" height="150.015" x="-36.316" y="-75.007" transform="matrix(0.6942 1.4706 1.4706 -0.6942 929.5742 1458.496)" overflow="visible"/>
	
		<use xlink:href="#Leaf"  width="72.633" height="150.015" x="-36.316" y="-75.007" transform="matrix(-1.5657 0.4393 0.4393 1.5657 1938.9502 1108.7566)" overflow="visible"/>
	
		<use xlink:href="#Leaf"  width="72.633" height="150.015" x="-36.316" y="-75.007" transform="matrix(-1.518 0.5833 0.5833 1.518 2840.6201 3258.115)" overflow="visible"/>
	
		<use xlink:href="#Leaf"  width="72.633" height="150.015" x="-36.316" y="-75.007" transform="matrix(1.5456 -0.5057 -0.5057 -1.5456 2159.0535 1575.5319)" overflow="visible"/>
	
		<use xlink:href="#Leaf"  width="72.633" height="150.015" x="-36.316" y="-75.007" transform="matrix(-0.1284 -1.6211 -1.6211 0.1284 4205.8809 3050.5449)" overflow="visible"/>
	
		<use xlink:href="#Leaf"  width="72.633" height="150.015" x="-36.316" y="-75.007" transform="matrix(1.5091 -0.6058 -0.6058 -1.5091 4342.9399 942.5787)" overflow="visible"/>
	
		<use xlink:href="#Leaf"  width="72.633" height="150.015" x="-36.316" y="-75.007" transform="matrix(0.3091 1.5965 1.5965 -0.3091 4876.6851 1957.5917)" overflow="visible"/>
	
		<use xlink:href="#Leaf"  width="72.633" height="150.015" x="-36.316" y="-75.007" transform="matrix(-1.2932 -0.9859 -0.9859 1.2932 3681.0586 1550.2301)" overflow="visible"/>
	
		<use xlink:href="#Leaf"  width="72.633" height="150.015" x="-36.316" y="-75.007" transform="matrix(0.2959 1.599 1.599 -0.2959 987.787 2462.5435)" overflow="visible"/>
	
		<use xlink:href="#Leaf"  width="72.633" height="150.015" x="-36.316" y="-75.007" transform="matrix(-1.5874 -0.3531 -0.3531 1.5874 860.4301 906.3696)" overflow="visible"/>
	
		<use xlink:href="#Leaf"  width="72.633" height="150.015" x="-36.316" y="-75.007" transform="matrix(-0.4966 1.5485 1.5485 0.4966 737.9355 1055.4923)" overflow="visible"/>
	
		<use xlink:href="#Leaf"  width="72.633" height="150.015" x="-36.316" y="-75.007" transform="matrix(1.5995 -0.2932 -0.2932 -1.5995 1598.2174 1433.1934)" overflow="visible"/>
	
		<use xlink:href="#Leaf"  width="72.633" height="150.015" x="-36.316" y="-75.007" transform="matrix(0.9724 1.3034 1.3034 -0.9724 1393.5923 2168.8076)" overflow="visible"/>
	
		<use xlink:href="#Leaf"  width="72.633" height="150.015" x="-36.316" y="-75.007" transform="matrix(-0.9394 1.3274 1.3274 0.9394 3227.2168 641.7119)" overflow="visible"/>
	
		<use xlink:href="#Leaf"  width="72.633" height="150.015" x="-36.316" y="-75.007" transform="matrix(1.3804 -0.8597 -0.8597 -1.3804 3807.6553 2861.5679)" overflow="visible"/>
	
		<use xlink:href="#Leaf"  width="72.633" height="150.015" x="-36.316" y="-75.007" transform="matrix(-0.7492 -1.4433 -1.4433 0.7492 1961.5461 2488.9358)" overflow="visible"/>
	
		<use xlink:href="#Leaf"  width="72.633" height="150.015" x="-36.316" y="-75.007" transform="matrix(-0.0603 1.6251 1.6251 0.0603 3386.5828 3137.9382)" overflow="visible"/>
	
		<use xlink:href="#Leaf"  width="72.633" height="150.015" x="-36.316" y="-75.007" transform="matrix(-0.7686 1.4331 1.4331 0.7686 1669.0542 2197.7925)" overflow="visible"/>
	
		<use xlink:href="#Leaf"  width="72.633" height="150.015" x="-36.316" y="-75.007" transform="matrix(1.1939 1.1041 1.1041 -1.1939 4073.759 2133.429)" overflow="visible"/>
	
		<use xlink:href="#Leaf"  width="72.633" height="150.015" x="-36.316" y="-75.007" transform="matrix(0.669 -1.4822 -1.4822 -0.669 3031.1985 1402.317)" overflow="visible"/>
	
		<use xlink:href="#Leaf"  width="72.633" height="150.015" x="-36.316" y="-75.007" transform="matrix(0.3691 -1.5837 -1.5837 -0.3691 1488.6967 143.2975)" overflow="visible"/>
	
		<use xlink:href="#Leaf"  width="72.633" height="150.015" x="-36.316" y="-75.007" transform="matrix(1.4002 -0.8269 -0.8269 -1.4002 4004.1062 1138.3555)" overflow="visible"/>
	
		<use xlink:href="#Leaf"  width="72.633" height="150.015" x="-36.316" y="-75.007" transform="matrix(1.6239 0.0852 0.0852 -1.6239 665.3753 1560.4708)" overflow="visible"/>
	
		<use xlink:href="#Leaf"  width="72.633" height="150.015" x="-36.316" y="-75.007" transform="matrix(0.6632 -1.4848 -1.4848 -0.6632 4211.7524 1954.9423)" overflow="visible"/>
	
		<use xlink:href="#Leaf"  width="72.633" height="150.015" x="-36.316" y="-75.007" transform="matrix(-1.6259 -0.0297 -0.0297 1.6259 874.0864 1271.7489)" overflow="visible"/>
	
		<use xlink:href="#Leaf"  width="72.633" height="150.015" x="-36.316" y="-75.007" transform="matrix(-0.0139 1.6261 1.6261 0.0139 3985.7046 1970.7505)" overflow="visible"/>
	
		<use xlink:href="#Leaf"  width="72.633" height="150.015" x="-36.316" y="-75.007" transform="matrix(-1.338 0.9242 0.9242 1.338 353.9282 2185.408)" overflow="visible"/>
	
		<use xlink:href="#Leaf"  width="72.633" height="150.015" x="-36.316" y="-75.007" transform="matrix(-1.1438 -1.156 -1.156 1.1438 1080.7936 1248.2421)" overflow="visible"/>
	
		<use xlink:href="#Leaf"  width="72.633" height="150.015" x="-36.316" y="-75.007" transform="matrix(1.174 -1.1252 -1.1252 -1.174 409.1984 1106.1754)" overflow="visible"/>
	
		<use xlink:href="#Leaf"  width="72.633" height="150.015" x="-36.316" y="-75.007" transform="matrix(-0.1833 -1.6158 -1.6158 0.1833 2942.075 653.2196)" overflow="visible"/>
	
		<use xlink:href="#Leaf"  width="72.633" height="150.015" x="-36.316" y="-75.007" transform="matrix(1.5324 -0.5441 -0.5441 -1.5324 665.8949 767.5177)" overflow="visible"/>
	
		<use xlink:href="#Leaf"  width="72.633" height="150.015" x="-36.316" y="-75.007" transform="matrix(0.5087 1.5446 1.5446 -0.5087 4638.748 2868.8333)" overflow="visible"/>
	
		<use xlink:href="#Leaf"  width="72.633" height="150.015" x="-36.316" y="-75.007" transform="matrix(0.5719 1.5223 1.5223 -0.5719 3666.0129 3264.6316)" overflow="visible"/>
	
		<use xlink:href="#Leaf"  width="72.633" height="150.015" x="-36.316" y="-75.007" transform="matrix(1.5821 0.3761 0.3761 -1.5821 3842.2056 2175.1567)" overflow="visible"/>
	
		<use xlink:href="#Leaf"  width="72.633" height="150.015" x="-36.316" y="-75.007" transform="matrix(1.5634 -0.4476 -0.4476 -1.5634 2452.6572 2012.4609)" overflow="visible"/>
	
		<use xlink:href="#Leaf"  width="72.633" height="150.015" x="-36.316" y="-75.007" transform="matrix(-0.7913 1.4207 1.4207 0.7913 1276.5613 1985.2391)" overflow="visible"/>
	
		<use xlink:href="#Leaf"  width="72.633" height="150.015" x="-36.316" y="-75.007" transform="matrix(1.3961 0.834 0.834 -1.3961 1955.5085 2853.9004)" overflow="visible"/>
	
		<use xlink:href="#Leaf"  width="72.633" height="150.015" x="-36.316" y="-75.007" transform="matrix(0.3928 1.578 1.578 -0.3928 3493.678 256.8619)" overflow="visible"/>
	
		<use xlink:href="#Leaf"  width="72.633" height="150.015" x="-36.316" y="-75.007" transform="matrix(1.2261 -1.0683 -1.0683 -1.2261 3410.5369 2902.2341)" overflow="visible"/>
	
		<use xlink:href="#Leaf"  width="72.633" height="150.015" x="-36.316" y="-75.007" transform="matrix(1.3726 -0.8721 -0.8721 -1.3726 3691.6567 2583.4937)" overflow="visible"/>
	
		<use xlink:href="#Leaf"  width="72.633" height="150.015" x="-36.316" y="-75.007" transform="matrix(1.1373 1.1623 1.1623 -1.1373 3415.9353 1173.417)" overflow="visible"/>
	
		<use xlink:href="#Leaf"  width="72.633" height="150.015" x="-36.316" y="-75.007" transform="matrix(0.2336 -1.6093 -1.6093 -0.2336 2850.6558 824.2423)" overflow="visible"/>
	
		<use xlink:href="#Leaf"  width="72.633" height="150.015" x="-36.316" y="-75.007" transform="matrix(-0.4072 -1.5744 -1.5744 0.4072 2414.8171 1599.6874)" overflow="visible"/>
	
		<use xlink:href="#Leaf"  width="72.633" height="150.015" x="-36.316" y="-75.007" transform="matrix(-1.1741 1.1252 1.1252 1.1741 3527.186 3802.9802)" overflow="visible"/>
	
		<use xlink:href="#Leaf"  width="72.633" height="150.015" x="-36.316" y="-75.007" transform="matrix(-0.1896 -1.6151 -1.6151 0.1896 2281.6428 955.1879)" overflow="visible"/>
	
		<use xlink:href="#Leaf"  width="72.633" height="150.015" x="-36.316" y="-75.007" transform="matrix(-1.4854 -0.6618 -0.6618 1.4854 2876.8735 1764.8992)" overflow="visible"/>
	
		<use xlink:href="#Leaf"  width="72.633" height="150.015" x="-36.316" y="-75.007" transform="matrix(1.0256 -1.262 -1.262 -1.0256 1952.2527 1439.9156)" overflow="visible"/>
	
		<use xlink:href="#Leaf"  width="72.633" height="150.015" x="-36.316" y="-75.007" transform="matrix(1.3016 -0.9748 -0.9748 -1.3016 1118.5443 385.5914)" overflow="visible"/>
	
		<use xlink:href="#Leaf"  width="72.633" height="150.015" x="-36.316" y="-75.007" transform="matrix(1.4336 0.7677 0.7677 -1.4336 4497.6528 2455.707)" overflow="visible"/>
	
		<use xlink:href="#Leaf"  width="72.633" height="150.015" x="-36.316" y="-75.007" transform="matrix(-0.2093 -1.6127 -1.6127 0.2093 3067.3889 4179.5962)" overflow="visible"/>
	
		<use xlink:href="#Leaf"  width="72.633" height="150.015" x="-36.316" y="-75.007" transform="matrix(-1.4874 -0.6572 -0.6572 1.4874 2704.9797 1227.0444)" overflow="visible"/>
	
		<use xlink:href="#Leaf"  width="72.633" height="150.015" x="-36.316" y="-75.007" transform="matrix(-0.4615 -1.5593 -1.5593 0.4615 461.6007 1422.5049)" overflow="visible"/>
	
		<use xlink:href="#Leaf"  width="72.633" height="150.015" x="-36.316" y="-75.007" transform="matrix(-0.3717 -1.5831 -1.5831 0.3717 3969.4448 1411.7107)" overflow="visible"/>
	
		<use xlink:href="#Leaf"  width="72.633" height="150.015" x="-36.316" y="-75.007" transform="matrix(0.194 1.6146 1.6146 -0.194 2225.3928 54.6982)" overflow="visible"/>
	
		<use xlink:href="#Leaf"  width="72.633" height="150.015" x="-36.316" y="-75.007" transform="matrix(-0.9007 -1.354 -1.354 0.9007 2209.0586 2398.6855)" overflow="visible"/>
	
		<use xlink:href="#Leaf"  width="72.633" height="150.015" x="-36.316" y="-75.007" transform="matrix(-1.2084 -1.0882 -1.0882 1.2084 2313.8862 2944.6682)" overflow="visible"/>
	
		<use xlink:href="#Leaf"  width="72.633" height="150.015" x="-36.316" y="-75.007" transform="matrix(1.2475 -1.0432 -1.0432 -1.2475 2101.4004 3058.3608)" overflow="visible"/>
	
		<use xlink:href="#Leaf"  width="72.633" height="150.015" x="-36.316" y="-75.007" transform="matrix(0.6249 -1.5013 -1.5013 -0.6249 3970.2827 1764.1766)" overflow="visible"/>
	
		<use xlink:href="#Leaf"  width="72.633" height="150.015" x="-36.316" y="-75.007" transform="matrix(0.5879 -1.5162 -1.5162 -0.5879 3096.979 3550.2458)" overflow="visible"/>
	
		<use xlink:href="#Leaf"  width="72.633" height="150.015" x="-36.316" y="-75.007" transform="matrix(1.4846 -0.6636 -0.6636 -1.4846 2919.1228 186.6274)" overflow="visible"/>
	
		<use xlink:href="#Leaf"  width="72.633" height="150.015" x="-36.316" y="-75.007" transform="matrix(0.82 1.4043 1.4043 -0.82 1733.6909 864.8074)" overflow="visible"/>
	
		<use xlink:href="#Leaf"  width="72.633" height="150.015" x="-36.316" y="-75.007" transform="matrix(-1.4991 -0.6302 -0.6302 1.4991 441.0119 1708.5992)" overflow="visible"/>
	
		<use xlink:href="#Leaf"  width="72.633" height="150.015" x="-36.316" y="-75.007" transform="matrix(1.6085 -0.2389 -0.2389 -1.6085 1048.5084 1786.5273)" overflow="visible"/>
	
		<use xlink:href="#Leaf"  width="72.633" height="150.015" x="-36.316" y="-75.007" transform="matrix(-1.6103 0.2267 0.2267 1.6103 117.5225 1806.4434)" overflow="visible"/>
	
		<use xlink:href="#Leaf"  width="72.633" height="150.015" x="-36.316" y="-75.007" transform="matrix(1.4764 0.6818 0.6818 -1.4764 451.3057 1921.2511)" overflow="visible"/>
	
		<use xlink:href="#Leaf"  width="72.633" height="150.015" x="-36.316" y="-75.007" transform="matrix(1.2865 -0.9946 -0.9946 -1.2865 2126.3127 2840.1038)" overflow="visible"/>
	
		<use xlink:href="#Leaf"  width="72.633" height="150.015" x="-36.316" y="-75.007" transform="matrix(-0.4483 -1.5632 -1.5632 0.4483 2977.0232 4037.7024)" overflow="visible"/>
	
		<use xlink:href="#Leaf"  width="72.633" height="150.015" x="-36.316" y="-75.007" transform="matrix(-0.6041 -1.5098 -1.5098 0.6041 4028.8611 2766.3389)" overflow="visible"/>
	
		<use xlink:href="#Leaf"  width="72.633" height="150.015" x="-36.316" y="-75.007" transform="matrix(-0.5699 -1.5231 -1.5231 0.5699 2358.9607 3118.2153)" overflow="visible"/>
	
		<use xlink:href="#Leaf"  width="72.633" height="150.015" x="-36.316" y="-75.007" transform="matrix(-1.4954 -0.639 -0.639 1.4954 74.4478 1266.3712)" overflow="visible"/>
	
		<use xlink:href="#Leaf"  width="72.633" height="150.015" x="-36.316" y="-75.007" transform="matrix(-0.428 1.5689 1.5689 0.428 3426.7915 1635.0922)" overflow="visible"/>
	
		<use xlink:href="#Leaf"  width="72.633" height="150.015" x="-36.316" y="-75.007" transform="matrix(1.5695 0.4258 0.4258 -1.5695 4371.5449 1537.1444)" overflow="visible"/>
	
		<use xlink:href="#Leaf"  width="72.633" height="150.015" x="-36.316" y="-75.007" transform="matrix(1.2402 1.0519 1.0519 -1.2402 452.8855 720.5929)" overflow="visible"/>
	
		<use xlink:href="#Leaf"  width="72.633" height="150.015" x="-36.316" y="-75.007" transform="matrix(-1.1697 -1.1297 -1.1297 1.1697 3994.4387 3475.8855)" overflow="visible"/>
	
		<use xlink:href="#Leaf"  width="72.633" height="150.015" x="-36.316" y="-75.007" transform="matrix(0.7181 1.459 1.459 -0.7181 1127.0529 814.4413)" overflow="visible"/>
	
		<use xlink:href="#Leaf"  width="72.633" height="150.015" x="-36.316" y="-75.007" transform="matrix(0.2014 -1.6137 -1.6137 -0.2014 4103.5581 1571.593)" overflow="visible"/>
	
		<use xlink:href="#Leaf"  width="72.633" height="150.015" x="-36.316" y="-75.007" transform="matrix(-0.084 1.624 1.624 0.084 2123.9893 1817.553)" overflow="visible"/>
	
		<use xlink:href="#Leaf"  width="72.633" height="150.015" x="-36.316" y="-75.007" transform="matrix(-0.7787 1.4276 1.4276 0.7787 3222.459 2021.2657)" overflow="visible"/>
	
		<use xlink:href="#Leaf"  width="72.633" height="150.015" x="-36.316" y="-75.007" transform="matrix(0.6403 1.4948 1.4948 -0.6403 3097.9988 1789.28)" overflow="visible"/>
	
		<use xlink:href="#Leaf"  width="72.633" height="150.015" x="-36.316" y="-75.007" transform="matrix(-1.1991 -1.0984 -1.0984 1.1991 2034.0757 2286.0457)" overflow="visible"/>
	
		<use xlink:href="#Leaf"  width="72.633" height="150.015" x="-36.316" y="-75.007" transform="matrix(1.5876 0.3521 0.3521 -1.5876 3430.4939 3328.2568)" overflow="visible"/>
	
		<use xlink:href="#Leaf"  width="72.633" height="150.015" x="-36.316" y="-75.007" transform="matrix(-0.2209 1.6111 1.6111 0.2209 912.9619 691.2946)" overflow="visible"/>
	
		<use xlink:href="#Leaf"  width="72.633" height="150.015" x="-36.316" y="-75.007" transform="matrix(1.2752 1.0092 1.0092 -1.2752 675.1385 507.5357)" overflow="visible"/>
	
		<use xlink:href="#Leaf"  width="72.633" height="150.015" x="-36.316" y="-75.007" transform="matrix(0.5876 -1.5163 -1.5163 -0.5876 2701.853 954.2168)" overflow="visible"/>
	
		<use xlink:href="#Leaf"  width="72.633" height="150.015" x="-36.316" y="-75.007" transform="matrix(-0.6561 -1.488 -1.488 0.6561 1231.9526 225.7052)" overflow="visible"/>
	
		<use xlink:href="#Leaf"  width="72.633" height="150.015" x="-36.316" y="-75.007" transform="matrix(0.6416 -1.4943 -1.4943 -0.6416 1381.7458 905.0931)" overflow="visible"/>
	
		<use xlink:href="#Leaf"  width="72.633" height="150.015" x="-36.316" y="-75.007" transform="matrix(-1.6229 0.1028 0.1028 1.6229 3057.5803 2699.99)" overflow="visible"/>
	
		<use xlink:href="#Leaf"  width="72.633" height="150.015" x="-36.316" y="-75.007" transform="matrix(0.8954 1.3575 1.3575 -0.8954 3500.2922 2683.6279)" overflow="visible"/>
	
		<use xlink:href="#Leaf"  width="72.633" height="150.015" x="-36.316" y="-75.007" transform="matrix(1.6248 0.0659 0.0659 -1.6248 3279.5562 234.4612)" overflow="visible"/>
	
		<use xlink:href="#Leaf"  width="72.633" height="150.015" x="-36.316" y="-75.007" transform="matrix(1.4357 -0.7636 -0.7636 -1.4357 4417.3398 2966.468)" overflow="visible"/>
	
		<use xlink:href="#Leaf"  width="72.633" height="150.015" x="-36.316" y="-75.007" transform="matrix(-1.3819 -0.8572 -0.8572 1.3819 4065.9382 2422.6304)" overflow="visible"/>
	
		<use xlink:href="#Leaf"  width="72.633" height="150.015" x="-36.316" y="-75.007" transform="matrix(0.0536 -1.6253 -1.6253 -0.0536 3512.4011 1951.1942)" overflow="visible"/>
	
		<use xlink:href="#Leaf"  width="72.633" height="150.015" x="-36.316" y="-75.007" transform="matrix(-1.6242 0.0803 0.0803 1.6242 2175.6155 2633.7336)" overflow="visible"/>
	
		<use xlink:href="#Leaf"  width="72.633" height="150.015" x="-36.316" y="-75.007" transform="matrix(-1.172 1.1273 1.1273 1.172 2955.5291 2864.6853)" overflow="visible"/>
	
		<use xlink:href="#Leaf"  width="72.633" height="150.015" x="-36.316" y="-75.007" transform="matrix(-1.4408 0.7541 0.7541 1.4408 1154.9022 1613.5885)" overflow="visible"/>
	
		<use xlink:href="#Leaf"  width="72.633" height="150.015" x="-36.316" y="-75.007" transform="matrix(1.4915 -0.6479 -0.6479 -1.4915 2975.4141 2001.578)" overflow="visible"/>
	
		<use xlink:href="#Leaf"  width="72.633" height="150.015" x="-36.316" y="-75.007" transform="matrix(1.4604 0.7152 0.7152 -1.4604 2492.2837 2275.6143)" overflow="visible"/>
	
		<use xlink:href="#Leaf"  width="72.633" height="150.015" x="-36.316" y="-75.007" transform="matrix(1.4886 0.6546 0.6546 -1.4886 1173.2144 2811.2192)" overflow="visible"/>
	
		<use xlink:href="#Leaf"  width="72.633" height="150.015" x="-36.316" y="-75.007" transform="matrix(-0.3931 -1.578 -1.578 0.3931 3449.8591 2524.0825)" overflow="visible"/>
	
		<use xlink:href="#Leaf"  width="72.633" height="150.015" x="-36.316" y="-75.007" transform="matrix(0.471 -1.5565 -1.5565 -0.471 4184.2192 2583.4543)" overflow="visible"/>
	
		<use xlink:href="#Leaf"  width="72.633" height="150.015" x="-36.316" y="-75.007" transform="matrix(-1.3713 -0.8741 -0.8741 1.3713 4101.8452 3651.3389)" overflow="visible"/>
	
		<use xlink:href="#Leaf"  width="72.633" height="150.015" x="-36.316" y="-75.007" transform="matrix(1.1679 1.1316 1.1316 -1.1679 3269.3892 2688.9746)" overflow="visible"/>
	
		<use xlink:href="#Leaf"  width="72.633" height="150.015" x="-36.316" y="-75.007" transform="matrix(1.1522 1.1476 1.1476 -1.1522 3876.3611 2396.8562)" overflow="visible"/>
	
		<use xlink:href="#Leaf"  width="72.633" height="150.015" x="-36.316" y="-75.007" transform="matrix(-0.9152 -1.3442 -1.3442 0.9152 939.2232 2287.2327)" overflow="visible"/>
	
		<use xlink:href="#Leaf"  width="72.633" height="150.015" x="-36.316" y="-75.007" transform="matrix(0.8401 1.3924 1.3924 -0.8401 2261.9429 378.8186)" overflow="visible"/>
	
		<use xlink:href="#Leaf"  width="72.633" height="150.015" x="-36.316" y="-75.007" transform="matrix(0.1279 1.6211 1.6211 -0.1279 2123.7131 238.9954)" overflow="visible"/>
	
		<use xlink:href="#Leaf"  width="72.633" height="150.015" x="-36.316" y="-75.007" transform="matrix(0.6996 1.468 1.468 -0.6996 1947.9275 1655.6429)" overflow="visible"/>
	
		<use xlink:href="#Leaf"  width="72.633" height="150.015" x="-36.316" y="-75.007" transform="matrix(1.1595 -1.1402 -1.1402 -1.1595 3710.0818 341.6428)" overflow="visible"/>
	
		<use xlink:href="#Leaf"  width="72.633" height="150.015" x="-36.316" y="-75.007" transform="matrix(-1.5667 -0.4359 -0.4359 1.5667 4008.0137 2991.2932)" overflow="visible"/>
	
		<use xlink:href="#Leaf"  width="72.633" height="150.015" x="-36.316" y="-75.007" transform="matrix(-0.9364 -1.3295 -1.3295 0.9364 1308.8337 1782.0874)" overflow="visible"/>
	
		<use xlink:href="#Leaf"  width="72.633" height="150.015" x="-36.316" y="-75.007" transform="matrix(1.2125 -1.0837 -1.0837 -1.2125 3419.6433 2089.855)" overflow="visible"/>
	
		<use xlink:href="#Leaf"  width="72.633" height="150.015" x="-36.316" y="-75.007" transform="matrix(0.3705 1.5834 1.5834 -0.3705 656.412 2077.6641)" overflow="visible"/>
	
		<use xlink:href="#Leaf"  width="72.633" height="150.015" x="-36.316" y="-75.007" transform="matrix(1.4281 0.7778 0.7778 -1.4281 3863.3669 3312.0598)" overflow="visible"/>
	
		<use xlink:href="#Leaf"  width="72.633" height="150.015" x="-36.316" y="-75.007" transform="matrix(0.5934 1.5141 1.5141 -0.5934 1796.1442 2602.8611)" overflow="visible"/>
	
		<use xlink:href="#Leaf"  width="72.633" height="150.015" x="-36.316" y="-75.007" transform="matrix(-1.4341 0.7667 0.7667 1.4341 2741.8762 3654.5562)" overflow="visible"/>
	
		<use xlink:href="#Leaf"  width="72.633" height="150.015" x="-36.316" y="-75.007" transform="matrix(0.9836 -1.295 -1.295 -0.9836 3090.0317 155.6271)" overflow="visible"/>
	
		<use xlink:href="#Leaf"  width="72.633" height="150.015" x="-36.316" y="-75.007" transform="matrix(-1.3673 -0.8802 -0.8802 1.3673 3550.5605 3527.4463)" overflow="visible"/>
	
		<use xlink:href="#Leaf"  width="72.633" height="150.015" x="-36.316" y="-75.007" transform="matrix(-1.5598 0.4597 0.4597 1.5598 3626.0735 2855.3936)" overflow="visible"/>
	
		<use xlink:href="#Leaf"  width="72.633" height="150.015" x="-36.316" y="-75.007" transform="matrix(0.6092 -1.5078 -1.5078 -0.6092 2207.1433 1996.2825)" overflow="visible"/>
	
		<use xlink:href="#Leaf"  width="72.633" height="150.015" x="-36.316" y="-75.007" transform="matrix(-1.5154 0.5899 0.5899 1.5154 3640.8044 2339.0574)" overflow="visible"/>
	
		<use xlink:href="#Leaf"  width="72.633" height="150.015" x="-36.316" y="-75.007" transform="matrix(1.3781 -0.8633 -0.8633 -1.3781 4220.7866 3400.1802)" overflow="visible"/>
	
		<use xlink:href="#Leaf"  width="72.633" height="150.015" x="-36.316" y="-75.007" transform="matrix(1.5849 0.364 0.364 -1.5849 2359.1318 138.8844)" overflow="visible"/>
	
		<use xlink:href="#Leaf"  width="72.633" height="150.015" x="-36.316" y="-75.007" transform="matrix(1.2994 -0.9778 -0.9778 -1.2994 2858.9771 3509.3689)" overflow="visible"/>
	
		<use xlink:href="#Leaf"  width="72.633" height="150.015" x="-36.316" y="-75.007" transform="matrix(-0.9485 -1.3209 -1.3209 0.9485 852.8774 1696.1282)" overflow="visible"/>
	
		<use xlink:href="#Leaf"  width="72.633" height="150.015" x="-36.316" y="-75.007" transform="matrix(-1.5635 -0.4472 -0.4472 1.5635 1780.6809 2861.4656)" overflow="visible"/>
	
		<use xlink:href="#Leaf"  width="72.633" height="150.015" x="-36.316" y="-75.007" transform="matrix(-0.2418 1.6081 1.6081 0.2418 4637.3809 2207.8577)" overflow="visible"/>
	
		<use xlink:href="#Leaf"  width="72.633" height="150.015" x="-36.316" y="-75.007" transform="matrix(0.738 -1.4491 -1.4491 -0.738 1099.7817 622.5048)" overflow="visible"/>
	
		<use xlink:href="#Leaf"  width="72.633" height="150.015" x="-36.316" y="-75.007" transform="matrix(1.6103 0.2264 0.2264 -1.6103 2665.8 2087.5623)" overflow="visible"/>
	
		<use xlink:href="#Leaf"  width="72.633" height="150.015" x="-36.316" y="-75.007" transform="matrix(-1.587 0.3547 0.3547 1.587 4948.3667 2466.1333)" overflow="visible"/>
	
		<use xlink:href="#Leaf"  width="72.633" height="150.015" x="-36.316" y="-75.007" transform="matrix(-1.4285 0.7771 0.7771 1.4285 2566.2344 1844.2295)" overflow="visible"/>
	
		<use xlink:href="#Leaf"  width="72.633" height="150.015" x="-36.316" y="-75.007" transform="matrix(1.6181 -0.1624 -0.1624 -1.6181 3131.178 1176.0037)" overflow="visible"/>
	
		<use xlink:href="#Leaf"  width="72.633" height="150.015" x="-36.316" y="-75.007" transform="matrix(1.0237 1.2636 1.2636 -1.0237 2227.5986 564.2416)" overflow="visible"/>
	
		<use xlink:href="#Leaf"  width="72.633" height="150.015" x="-36.316" y="-75.007" transform="matrix(0.753 1.4414 1.4414 -0.753 3831.4873 762.3343)" overflow="visible"/>
	
		<use xlink:href="#Leaf"  width="72.633" height="150.015" x="-36.316" y="-75.007" transform="matrix(-1.058 1.2349 1.2349 1.058 1621.692 2712.2605)" overflow="visible"/>
	
		<use xlink:href="#Leaf"  width="72.633" height="150.015" x="-36.316" y="-75.007" transform="matrix(1.1897 -1.1087 -1.1087 -1.1897 2588.467 3129.0391)" overflow="visible"/>
	
		<use xlink:href="#Leaf"  width="72.633" height="150.015" x="-36.316" y="-75.007" transform="matrix(-0.4421 -1.5649 -1.5649 0.4421 2544.2571 2948.749)" overflow="visible"/>
	
		<use xlink:href="#Leaf"  width="72.633" height="150.015" x="-36.316" y="-75.007" transform="matrix(-0.101 1.623 1.623 0.101 3111.0317 409.9082)" overflow="visible"/>
	
		<use xlink:href="#Leaf"  width="72.633" height="150.015" x="-36.316" y="-75.007" transform="matrix(0.4199 -1.571 -1.571 -0.4199 2912.2332 2462.209)" overflow="visible"/>
	
		<use xlink:href="#Leaf"  width="72.633" height="150.015" x="-36.316" y="-75.007" transform="matrix(1.5453 0.5065 0.5065 -1.5453 2024.2581 439.6879)" overflow="visible"/>
	
		<use xlink:href="#Leaf"  width="72.633" height="150.015" x="-36.316" y="-75.007" transform="matrix(1.1149 1.1838 1.1838 -1.1149 2670.4182 454.3536)" overflow="visible"/>
	
		<use xlink:href="#Leaf"  width="72.633" height="150.015" x="-36.316" y="-75.007" transform="matrix(-1.6129 0.2075 0.2075 1.6129 1886.8641 2226.3445)" overflow="visible"/>
	
		<use xlink:href="#Leaf"  width="72.633" height="150.015" x="-36.316" y="-75.007" transform="matrix(-0.3457 1.589 1.589 0.3457 2166.179 769.704)" overflow="visible"/>
	
		<use xlink:href="#Leaf"  width="72.633" height="150.015" x="-36.316" y="-75.007" transform="matrix(0.8657 1.3766 1.3766 -0.8657 4260.0913 1190.8092)" overflow="visible"/>
	
		<use xlink:href="#Leaf"  width="72.633" height="150.015" x="-36.316" y="-75.007" transform="matrix(1.1731 1.1262 1.1262 -1.1731 2373.1079 2697.23)" overflow="visible"/>
	
		<use xlink:href="#Leaf"  width="72.633" height="150.015" x="-36.316" y="-75.007" transform="matrix(0.2258 -1.6104 -1.6104 -0.2258 1623.5056 368.4922)" overflow="visible"/>
	
		<use xlink:href="#Leaf"  width="72.633" height="150.015" x="-36.316" y="-75.007" transform="matrix(0.1784 -1.6164 -1.6164 -0.1784 1717.6514 2388.9321)" overflow="visible"/>
	
		<use xlink:href="#Leaf"  width="72.633" height="150.015" x="-36.316" y="-75.007" transform="matrix(-1.62 0.1415 0.1415 1.62 2345.3679 1817.5325)" overflow="visible"/>
	
		<use xlink:href="#Leaf"  width="72.633" height="150.015" x="-36.316" y="-75.007" transform="matrix(1.3905 0.8432 0.8432 -1.3905 3831.9292 501.3001)" overflow="visible"/>
	
		<use xlink:href="#Leaf"  width="72.633" height="150.015" x="-36.316" y="-75.007" transform="matrix(-1.6215 0.123 0.123 1.6215 2825.9993 1367.609)" overflow="visible"/>
	
		<use xlink:href="#Leaf"  width="72.633" height="150.015" x="-36.316" y="-75.007" transform="matrix(-0.0765 -1.6244 -1.6244 0.0765 3339.8296 484.8358)" overflow="visible"/>
	
		<use xlink:href="#Leaf"  width="72.633" height="150.015" x="-36.316" y="-75.007" transform="matrix(-1.6255 0.0477 0.0477 1.6255 2517.8574 829.9416)" overflow="visible"/>
	
		<use xlink:href="#Leaf"  width="72.633" height="150.015" x="-36.316" y="-75.007" transform="matrix(-1.0259 -1.2617 -1.2617 1.0259 3837.1204 1628.5413)" overflow="visible"/>
	
		<use xlink:href="#Leaf"  width="72.633" height="150.015" x="-36.316" y="-75.007" transform="matrix(-1.052 -1.2401 -1.2401 1.052 4241.583 2850.229)" overflow="visible"/>
	
		<use xlink:href="#Leaf"  width="72.633" height="150.015" x="-36.316" y="-75.007" transform="matrix(1.6184 -0.159 -0.159 -1.6184 1868.6716 293.0267)" overflow="visible"/>
	
		<use xlink:href="#Leaf"  width="72.633" height="150.015" x="-36.316" y="-75.007" transform="matrix(-1.1816 -1.1173 -1.1173 1.1816 2745.6577 286.6267)" overflow="visible"/>
	
		<use xlink:href="#Leaf"  width="72.633" height="150.015" x="-36.316" y="-75.007" transform="matrix(-1.1152 1.1835 1.1835 1.1152 2555.9045 115.06)" overflow="visible"/>
	
		<use xlink:href="#Leaf"  width="72.633" height="150.015" x="-36.316" y="-75.007" transform="matrix(-1.167 -1.1325 -1.1325 1.167 3292.7856 1035.8628)" overflow="visible"/>
	
		<use xlink:href="#Leaf"  width="72.633" height="150.015" x="-36.316" y="-75.007" transform="matrix(-1.4925 -0.6457 -0.6457 1.4925 3979.9722 596.1328)" overflow="visible"/>
	
		<use xlink:href="#Leaf"  width="72.633" height="150.015" x="-36.316" y="-75.007" transform="matrix(0.1563 -1.6186 -1.6186 -0.1563 1957.2584 2022.5007)" overflow="visible"/>
	
		<use xlink:href="#Leaf"  width="72.633" height="150.015" x="-36.316" y="-75.007" transform="matrix(0.7391 -1.4485 -1.4485 -0.7391 2772.9922 1956.7496)" overflow="visible"/>
	
		<use xlink:href="#Leaf"  width="72.633" height="150.015" x="-36.316" y="-75.007" transform="matrix(-0.1101 -1.6224 -1.6224 0.1101 3252.6873 3801.9866)" overflow="visible"/>
	
		<use xlink:href="#Leaf"  width="72.633" height="150.015" x="-36.316" y="-75.007" transform="matrix(-1.5956 0.3141 0.3141 1.5956 2845.0725 2235.292)" overflow="visible"/>
	
		<use xlink:href="#Leaf"  width="72.633" height="150.015" x="-36.316" y="-75.007" transform="matrix(0.3447 -1.5892 -1.5892 -0.3447 2564.9519 2760.8958)" overflow="visible"/>
	
		<use xlink:href="#Leaf"  width="72.633" height="150.015" x="-36.316" y="-75.007" transform="matrix(1.6245 0.0728 0.0728 -1.6245 729.7643 2292.7969)" overflow="visible"/>
	
		<use xlink:href="#Leaf"  width="72.633" height="150.015" x="-36.316" y="-75.007" transform="matrix(-1.5169 0.5861 0.5861 1.5169 2703.2529 2402.1316)" overflow="visible"/>
	
		<use xlink:href="#Leaf"  width="72.633" height="150.015" x="-36.316" y="-75.007" transform="matrix(0.4198 -1.5711 -1.5711 -0.4198 2690.8894 69.5504)" overflow="visible"/>
	
		<use xlink:href="#Leaf"  width="72.633" height="150.015" x="-36.316" y="-75.007" transform="matrix(-1.0498 1.2419 1.2419 1.0498 3864.3926 1219.8243)" overflow="visible"/>
	
		<use xlink:href="#Leaf"  width="72.633" height="150.015" x="-36.316" y="-75.007" transform="matrix(0.8682 1.375 1.375 -0.8682 4317.3169 3204.8552)" overflow="visible"/>
	
		<use xlink:href="#Leaf"  width="72.633" height="150.015" x="-36.316" y="-75.007" transform="matrix(-1.6034 -0.2715 -0.2715 1.6034 4930.5576 2215.3611)" overflow="visible"/>
	
		<use xlink:href="#Leaf"  width="72.633" height="150.015" x="-36.316" y="-75.007" transform="matrix(-0.6788 -1.4777 -1.4777 0.6788 3287.5222 1843.1371)" overflow="visible"/>
	
		<use xlink:href="#Leaf"  width="72.633" height="150.015" x="-36.316" y="-75.007" transform="matrix(-1.6091 0.2353 0.2353 1.6091 1329.3885 651.9564)" overflow="visible"/>
	
		<use xlink:href="#Leaf"  width="72.633" height="150.015" x="-36.316" y="-75.007" transform="matrix(-1.603 0.2733 0.2733 1.603 3211.8369 2497.418)" overflow="visible"/>
	
		<use xlink:href="#Leaf"  width="72.633" height="150.015" x="-36.316" y="-75.007" transform="matrix(1.2908 0.989 0.989 -1.2908 918.3689 2059.228)" overflow="visible"/>
	
		<use xlink:href="#Leaf"  width="72.633" height="150.015" x="-36.316" y="-75.007" transform="matrix(1.3735 -0.8706 -0.8706 -1.3735 3250.866 1396.6477)" overflow="visible"/>
	
		<use xlink:href="#Leaf"  width="72.633" height="150.015" x="-36.316" y="-75.007" transform="matrix(0.2395 -1.6084 -1.6084 -0.2395 1200.913 2355.6091)" overflow="visible"/>
	
		<use xlink:href="#Leaf"  width="72.633" height="150.015" x="-36.316" y="-75.007" transform="matrix(-1.5346 0.538 0.538 1.5346 4078.7795 3239.3435)" overflow="visible"/>
	
		<use xlink:href="#Leaf"  width="72.633" height="150.015" x="-36.316" y="-75.007" transform="matrix(0.5405 -1.5337 -1.5337 -0.5405 1670.4905 1052.5388)" overflow="visible"/>
	
		<use xlink:href="#Leaf"  width="72.633" height="150.015" x="-36.316" y="-75.007" transform="matrix(0.159 -1.6184 -1.6184 -0.159 3694.3052 3782.083)" overflow="visible"/>
	
		<use xlink:href="#Leaf"  width="72.633" height="150.015" x="-36.316" y="-75.007" transform="matrix(-1.5357 -0.5349 -0.5349 1.5357 288.5997 1634.3324)" overflow="visible"/>
	
		<use xlink:href="#Leaf"  width="72.633" height="150.015" x="-36.316" y="-75.007" transform="matrix(0.7967 -1.4177 -1.4177 -0.7967 3210.5964 2912.6274)" overflow="visible"/>
	
		<use xlink:href="#Leaf"  width="72.633" height="150.015" x="-36.316" y="-75.007" transform="matrix(1.2074 -1.0893 -1.0893 -1.2074 3563.7585 448.1847)" overflow="visible"/>
	
		<use xlink:href="#Leaf"  width="72.633" height="150.015" x="-36.316" y="-75.007" transform="matrix(-1.1698 -1.1296 -1.1296 1.1698 2851.9844 493.9343)" overflow="visible"/>
	
		<use xlink:href="#Leaf"  width="72.633" height="150.015" x="-36.316" y="-75.007" transform="matrix(-1.6223 -0.1128 -0.1128 1.6223 3039.624 3797.4436)" overflow="visible"/>
	
		<use xlink:href="#Leaf"  width="72.633" height="150.015" x="-36.316" y="-75.007" transform="matrix(-0.6606 -1.4859 -1.4859 0.6606 1956.1722 2678.6804)" overflow="visible"/>
	
		<use xlink:href="#Leaf"  width="72.633" height="150.015" x="-36.316" y="-75.007" transform="matrix(0.6389 -1.4954 -1.4954 -0.6389 4846.0713 2616.9338)" overflow="visible"/>
	
		<use xlink:href="#Leaf"  width="72.633" height="150.015" x="-36.316" y="-75.007" transform="matrix(-1.4168 0.7983 0.7983 1.4168 1425.8689 2623.9314)" overflow="visible"/>
	
		<use xlink:href="#Leaf"  width="72.633" height="150.015" x="-36.316" y="-75.007" transform="matrix(-1.089 -1.2077 -1.2077 1.089 3901.8572 2647.2693)" overflow="visible"/>
	
		<use xlink:href="#Leaf"  width="72.633" height="150.015" x="-36.316" y="-75.007" transform="matrix(0.7103 -1.4629 -1.4629 -0.7103 3187.0896 2198.5354)" overflow="visible"/>
	
		<use xlink:href="#Leaf"  width="72.633" height="150.015" x="-36.316" y="-75.007" transform="matrix(-1.5389 0.5257 0.5257 1.5389 4452.3984 2148.9231)" overflow="visible"/>
	
		<use xlink:href="#Leaf"  width="72.633" height="150.015" x="-36.316" y="-75.007" transform="matrix(1.6207 -0.1328 -0.1328 -1.6207 2860.969 3805.7148)" overflow="visible"/>
	
		<use xlink:href="#Leaf"  width="72.633" height="150.015" x="-36.316" y="-75.007" transform="matrix(-0.7704 1.4321 1.4321 0.7704 1226.455 1399.7684)" overflow="visible"/>
	
		<use xlink:href="#Leaf"  width="72.633" height="150.015" x="-36.316" y="-75.007" transform="matrix(1.3886 0.8463 0.8463 -1.3886 4260.6284 2183.6021)" overflow="visible"/>
	
		<use xlink:href="#Leaf"  width="72.633" height="150.015" x="-36.316" y="-75.007" transform="matrix(-1.303 0.973 0.973 1.303 2987.8025 3130.7283)" overflow="visible"/>
	
		<use xlink:href="#Leaf"  width="72.633" height="150.015" x="-36.316" y="-75.007" transform="matrix(0.9479 -1.3213 -1.3213 -0.9479 3598.9192 1089.0547)" overflow="visible"/>
	
		<use xlink:href="#Leaf"  width="72.633" height="150.015" x="-36.316" y="-75.007" transform="matrix(-1.6001 -0.29 -0.29 1.6001 2772.5383 3003.9431)" overflow="visible"/>
	
		<use xlink:href="#Leaf"  width="72.633" height="150.015" x="-36.316" y="-75.007" transform="matrix(-1.3785 0.8627 0.8627 1.3785 550.5839 2291.6682)" overflow="visible"/>
	
		<use xlink:href="#Leaf"  width="72.633" height="150.015" x="-36.316" y="-75.007" transform="matrix(0.8804 1.3672 1.3672 -0.8804 4350.8066 2366.1726)" overflow="visible"/>
	
		<use xlink:href="#Leaf"  width="72.633" height="150.015" x="-36.316" y="-75.007" transform="matrix(-0.2322 1.6095 1.6095 0.2322 3679.3438 1316.8873)" overflow="visible"/>
	
		<use xlink:href="#Leaf"  width="72.633" height="150.015" x="-36.316" y="-75.007" transform="matrix(-1.0249 1.2626 1.2626 1.0249 1710.712 2021.3455)" overflow="visible"/>
	
		<use xlink:href="#Leaf"  width="72.633" height="150.015" x="-36.316" y="-75.007" transform="matrix(0.0604 1.6251 1.6251 -0.0604 1410.8972 1564.9674)" overflow="visible"/>
	
		<use xlink:href="#Leaf"  width="72.633" height="150.015" x="-36.316" y="-75.007" transform="matrix(0.7749 1.4297 1.4297 -0.7749 894.3749 358.867)" overflow="visible"/>
	
		<use xlink:href="#Leaf"  width="72.633" height="150.015" x="-36.316" y="-75.007" transform="matrix(-0.784 -1.4247 -1.4247 0.784 3548.4248 914.442)" overflow="visible"/>
	
		<use xlink:href="#Leaf"  width="72.633" height="150.015" x="-36.316" y="-75.007" transform="matrix(1.1378 -1.1618 -1.1618 -1.1378 3465.7236 1423.9962)" overflow="visible"/>
	
		<use xlink:href="#Leaf"  width="72.633" height="150.015" x="-36.316" y="-75.007" transform="matrix(-1.3603 -0.8911 -0.8911 1.3603 1357.0496 1169.2596)" overflow="visible"/>
	
		<use xlink:href="#Leaf"  width="72.633" height="150.015" x="-36.316" y="-75.007" transform="matrix(0.126 -1.6213 -1.6213 -0.126 2054.74 1294.5187)" overflow="visible"/>
	
		<use xlink:href="#Leaf"  width="72.633" height="150.015" x="-36.316" y="-75.007" transform="matrix(-1.5976 -0.3037 -0.3037 1.5976 1472.3265 1946.6549)" overflow="visible"/>
	
		<use xlink:href="#Leaf"  width="72.633" height="150.015" x="-36.316" y="-75.007" transform="matrix(1.6172 0.1708 0.1708 -1.6172 4179.8081 983.2513)" overflow="visible"/>
	
		<use xlink:href="#Leaf"  width="72.633" height="150.015" x="-36.316" y="-75.007" transform="matrix(1.1849 -1.1138 -1.1138 -1.1849 3210.5789 3303.9731)" overflow="visible"/>
	
		<use xlink:href="#Leaf"  width="72.633" height="150.015" x="-36.316" y="-75.007" transform="matrix(0.3936 1.5778 1.5778 -0.3936 3792.2808 1825.2933)" overflow="visible"/>
	
		<use xlink:href="#Leaf"  width="72.633" height="150.015" x="-36.316" y="-75.007" transform="matrix(1.4164 0.799 0.799 -1.4164 2492.4097 1310.2692)" overflow="visible"/>
	
		<use xlink:href="#Leaf"  width="72.633" height="150.015" x="-36.316" y="-75.007" transform="matrix(0.8318 1.3973 1.3973 -0.8318 1925.8947 673.3926)" overflow="visible"/>
	
		<use xlink:href="#Leaf"  width="72.633" height="150.015" x="-36.316" y="-75.007" transform="matrix(0.85 -1.3864 -1.3864 -0.85 1196.5742 995.837)" overflow="visible"/>
	
		<use xlink:href="#Leaf"  width="72.633" height="150.015" x="-36.316" y="-75.007" transform="matrix(1.3062 -0.9687 -0.9687 -1.3062 647.3774 1251.3977)" overflow="visible"/>
	
		<use xlink:href="#Leaf"  width="72.633" height="150.015" x="-36.316" y="-75.007" transform="matrix(-1.436 -0.7632 -0.7632 1.436 3401.6836 2358.2932)" overflow="visible"/>
	
		<use xlink:href="#Leaf"  width="72.633" height="150.015" x="-36.316" y="-75.007" transform="matrix(-0.5118 -1.5436 -1.5436 0.5118 1548.8101 1206.9855)" overflow="visible"/>
	
		<use xlink:href="#Leaf"  width="72.633" height="150.015" x="-36.316" y="-75.007" transform="matrix(1.0104 -1.2741 -1.2741 -1.0104 3575.302 671.7921)" overflow="visible"/>
	
		<use xlink:href="#Leaf"  width="72.633" height="150.015" x="-36.316" y="-75.007" transform="matrix(-0.0554 1.6252 1.6252 0.0554 3048.8904 3355.8237)" overflow="visible"/>
	
		<use xlink:href="#Leaf"  width="72.633" height="150.015" x="-36.316" y="-75.007" transform="matrix(-1.6252 -0.0558 -0.0558 1.6252 4621.541 1983.075)" overflow="visible"/>
	
		<use xlink:href="#Leaf"  width="72.633" height="150.015" x="-36.316" y="-75.007" transform="matrix(-1.1453 1.1544 1.1544 1.1453 4167.2764 749.5289)" overflow="visible"/>
	
		<use xlink:href="#Leaf"  width="72.633" height="150.015" x="-36.316" y="-75.007" transform="matrix(-0.7884 -1.4223 -1.4223 0.7884 906.0933 527.6666)" overflow="visible"/>
	
		<use xlink:href="#Leaf"  width="72.633" height="150.015" x="-36.316" y="-75.007" transform="matrix(-0.0342 -1.6258 -1.6258 0.0342 3130.2666 1627.3225)" overflow="visible"/>
	
		<use xlink:href="#Leaf"  width="72.633" height="150.015" x="-36.316" y="-75.007" transform="matrix(1.2435 -1.0479 -1.0479 -1.2435 1551.2378 3063.8721)" overflow="visible"/>
	
		<use xlink:href="#Leaf"  width="72.633" height="150.015" x="-36.316" y="-75.007" transform="matrix(0.9959 1.2855 1.2855 -0.9959 3829.2329 3092.9165)" overflow="visible"/>
	
		<use xlink:href="#Leaf"  width="72.633" height="150.015" x="-36.316" y="-75.007" transform="matrix(-1.625 -0.063 -0.063 1.625 2361.2761 731.2497)" overflow="visible"/>
	
		<use xlink:href="#Leaf"  width="72.633" height="150.015" x="-36.316" y="-75.007" transform="matrix(1.5266 -0.5604 -0.5604 -1.5266 4691.5166 1488.4808)" overflow="visible"/>
	
		<use xlink:href="#Leaf"  width="72.633" height="150.015" x="-36.316" y="-75.007" transform="matrix(0.1198 1.6218 1.6218 -0.1198 2005.0519 887.6035)" overflow="visible"/>
	
		<use xlink:href="#Leaf"  width="72.633" height="150.015" x="-36.316" y="-75.007" transform="matrix(1.0157 -1.27 -1.27 -1.0157 4430.606 2696.8147)" overflow="visible"/>
	
		<use xlink:href="#Leaf"  width="72.633" height="150.015" x="-36.316" y="-75.007" transform="matrix(-1.5019 -0.6236 -0.6236 1.5019 2807.7437 2680.5181)" overflow="visible"/>
	
		<use xlink:href="#Leaf"  width="72.633" height="150.015" x="-36.316" y="-75.007" transform="matrix(0.2803 1.6018 1.6018 -0.2803 321.2633 1248.2109)" overflow="visible"/>
	
		<use xlink:href="#Leaf"  width="72.633" height="150.015" x="-36.316" y="-75.007" transform="matrix(0.1667 -1.6176 -1.6176 -0.1667 3134.7542 834.9625)" overflow="visible"/>
	
		<use xlink:href="#Leaf"  width="72.633" height="150.015" x="-36.316" y="-75.007" transform="matrix(-0.2993 -1.5984 -1.5984 0.2993 1587.3167 2507.1487)" overflow="visible"/>
	
		<use xlink:href="#Leaf"  width="72.633" height="150.015" x="-36.316" y="-75.007" transform="matrix(-1.1003 1.1974 1.1974 1.1003 2486.8511 532.8914)" overflow="visible"/>
	
		<use xlink:href="#Leaf"  width="72.633" height="150.015" x="-36.316" y="-75.007" transform="matrix(-1.405 0.8187 0.8187 1.405 1242.5688 2590.8491)" overflow="visible"/>
	
		<use xlink:href="#Leaf"  width="72.633" height="150.015" x="-36.316" y="-75.007" transform="matrix(1.2074 1.0893 1.0893 -1.2074 4295.4727 1348.7738)" overflow="visible"/>
	
		<use xlink:href="#Leaf"  width="72.633" height="150.015" x="-36.316" y="-75.007" transform="matrix(1.5447 -0.5084 -0.5084 -1.5447 4798.1924 1736.928)" overflow="visible"/>
	
		<use xlink:href="#Leaf"  width="72.633" height="150.015" x="-36.316" y="-75.007" transform="matrix(0.8931 -1.359 -1.359 -0.8931 3019.5037 2297.0466)" overflow="visible"/>
	
		<use xlink:href="#Leaf"  width="72.633" height="150.015" x="-36.316" y="-75.007" transform="matrix(-1.3245 0.9435 0.9435 1.3245 4518.1821 1157.1353)" overflow="visible"/>
	
		<use xlink:href="#Leaf"  width="72.633" height="150.015" x="-36.316" y="-75.007" transform="matrix(0.9264 -1.3365 -1.3365 -0.9264 4696.6553 2400.3428)" overflow="visible"/>
	
		<use xlink:href="#Leaf"  width="72.633" height="150.015" x="-36.316" y="-75.007" transform="matrix(0.0803 -1.6242 -1.6242 -0.0803 2609.1895 1472.8698)" overflow="visible"/>
	
		<use xlink:href="#Leaf"  width="72.633" height="150.015" x="-36.316" y="-75.007" transform="matrix(-1.3361 0.927 0.927 1.3361 4538.7891 1400.1846)" overflow="visible"/>
	
		<use xlink:href="#Leaf"  width="72.633" height="150.015" x="-36.316" y="-75.007" transform="matrix(1.626 0.0259 0.0259 -1.626 2685.7827 680.8954)" overflow="visible"/>
	
		<use xlink:href="#Leaf"  width="72.633" height="150.015" x="-36.316" y="-75.007" transform="matrix(-0.2662 -1.6042 -1.6042 0.2662 3007.2522 998.0618)" overflow="visible"/>
	
		<use xlink:href="#Leaf"  width="72.633" height="150.015" x="-36.316" y="-75.007" transform="matrix(-0.2792 1.602 1.602 0.2792 2506.6951 3299.0327)" overflow="visible"/>
	
		<use xlink:href="#Leaf"  width="72.633" height="150.015" x="-36.316" y="-75.007" transform="matrix(1.1426 1.1571 1.1571 -1.1426 3633.6772 3031.9768)" overflow="visible"/>
	
		<use xlink:href="#Leaf"  width="72.633" height="150.015" x="-36.316" y="-75.007" transform="matrix(1.2608 1.027 1.027 -1.2608 1792.3168 1289.1881)" overflow="visible"/>
	
		<use xlink:href="#Leaf"  width="72.633" height="150.015" x="-36.316" y="-75.007" transform="matrix(1.6007 -0.2867 -0.2867 -1.6007 2277.9324 1377.8188)" overflow="visible"/>
	
		<use xlink:href="#Leaf"  width="72.633" height="150.015" x="-36.316" y="-75.007" transform="matrix(0.5143 -1.5427 -1.5427 -0.5143 816.4958 1881.0399)" overflow="visible"/>
</g>
</svg>
